PathFileType	4	(X/Y/Z)	Patient4_TMGait_0pt4_03_left_17.trc.trc
DataRate	CameraRate	NumFrames	NumMarkers	Units	OrigDataRate	OrigDataStartFrame	OrigNumFrames
74.866310160428	74.866310160428	6	33	mm	74.866310160428	124	       141
Frame#	Time	Sacral			L.Shoulder			Chest			R.Shoulder			Neck			R.ASIS			L.ASIS			R.Thigh.Superior			R.Thigh.Lateral			R.Thigh.Inferior			R.Patella			L.Thigh.Superior			L.Thigh.Lateral			L.Thigh.Inferior			L.Patella			L.Shank.Superior			L.Shank.Lateral			L.Shank.Inferior			R.Shank.Superior			R.Shank.Lateral			R.Shank.Inferior			R.Heel			R.Midfoot.Superior			R.Midfoot.Lateral			R.Toe			L.Heel			L.Midfoot.Lateral			L.Midfoot.Superior			L.Toe			L.Elbow			L.Wrist			R.Elbow			R.Wrist			
		X1	Y1	Z1	X2	Y2	Z2	X3	Y3	Z3	X4	Y4	Z4	X5	Y5	Z5	X6	Y6	Z6	X7	Y7	Z7	X8	Y8	Z8	X9	Y9	Z9	X10	Y10	Z10	X11	Y11	Z11	X12	Y12	Z12	X13	Y13	Z13	X14	Y14	Z14	X15	Y15	Z15	X16	Y16	Z16	X17	Y17	Z17	X18	Y18	Z18	X19	Y19	Z19	X20	Y20	Z20	X21	Y21	Z21	X22	Y22	Z22	X23	Y23	Z23	X24	Y24	Z24	X25	Y25	Z25	X26	Y26	Z26	X27	Y27	Z27	X28	Y28	Z28	X29	Y29	Z29	X30	Y30	Z30	X31	Y31	Z31	X32	Y32	Z32	X33	Y33	Z33	

124	23.762928571429	855.396013834529	1001.517542197633	520.605807253630	1007.121018990473	1422.744398886060	308.655706665267	1137.808633418249	1354.361403196957	448.483104008952	1091.904210365176	1431.863394815240	634.371789809772	1021.593953609925	1487.822196649220	462.332460740210	1096.260038379160	931.411917990339	602.374302606500	1044.388990886336	954.987905460262	333.080838802631	1096.797649492087	721.103114623732	575.066749450011	1000.572473848070	624.325742656152	644.529823856103	1056.913529746342	560.680777073270	560.274138429705	1039.871803420050	473.669116529814	567.902787706063	1121.339660152349	765.384784256751	358.077880562621	1060.478905011271	637.443441472433	289.668947393182	1165.899078551797	578.579386542679	345.159853891220	1187.757746059109	512.549687228530	343.046949267631	1169.606475163862	439.434689183753	333.073547532012	1096.642824970754	311.662897322989	287.192292113621	1182.480102475169	210.104505824292	338.859394467202	998.404963560115	390.399019840724	577.155554217015	913.779338421138	299.285641243604	642.168056329908	937.109926063612	198.756726758679	578.703727648623	785.324906020051	43.317959877331	549.639229799155	953.887172148117	94.994498181833	590.985190651135	865.272732523641	36.300921738893	627.081887448126	1073.593318293124	42.647589127268	625.127638155866	1092.673481052726	38.825518802822	380.861518940872	1163.330395659343	40.367539767644	298.030001346381	1239.911632587395	111.206376305326	318.825572364865	1370.081825480767	73.284640055566	285.947918449295	897.380375597853	1080.710969511357	218.909630071485	928.154567746040	820.166461659525	200.071222596466	1137.755842914607	1083.654668522242	749.933894280210	1323.476188217671	932.589001558837	654.437388968501	
125	23.776285714286	856.960638943465	1000.339215318090	518.147380081970	1007.353873756048	1421.546225215262	305.481617104097	1137.959753338180	1354.128928485501	445.828878633882	1091.013587535642	1431.491679593746	631.525601611289	1021.084412947511	1486.993588595053	459.216480206011	1097.931368720722	930.788638816413	600.872445989204	1046.589901714522	953.745938613791	331.517865653949	1097.736013548825	720.103738783780	574.129696485713	1000.281286262102	623.773895074821	643.187926990325	1056.547139160867	559.553553584906	559.411528849178	1038.832567951288	472.254362585495	566.915516668088	1122.780197901105	762.626073294088	356.340535219714	1059.524935424961	635.166667433837	289.343028363762	1164.923868023634	575.944851106011	344.637774248606	1185.343942781228	509.415281909055	343.235125379149	1167.151934555218	436.405579820618	333.216478621461	1093.227364291503	308.896650249880	288.152344382036	1178.412484941390	207.043801224660	340.072846458843	996.312773574657	389.530147838462	576.193477205795	910.754068301587	299.438902916837	641.536678623411	933.024048748262	198.509478066896	578.344072894325	779.981345815422	43.749352696370	549.762751344372	948.721267601313	95.025315407719	590.987265183859	859.969044283631	36.413267598237	627.052578548107	1068.332446542686	42.297351135344	625.210861132526	1086.324536638728	38.251644048529	383.052386847503	1156.583773365179	38.523872069202	299.746527607539	1235.095824937951	107.079944295948	320.685888749039	1364.381259663695	65.863500842192	286.985833978743	899.788930200349	1078.599507305201	216.369246745046	933.700137311138	818.256140592227	198.580875459168	1137.363876723300	1082.688637946028	745.726495586906	1320.814508301793	929.309203519563	649.017943996648	
126	23.789642857143	858.470179278772	999.362583862057	515.672317550804	1007.670490173152	1420.481307665558	302.193116950014	1138.177068876415	1354.020248352443	443.066127209330	1090.227316287957	1431.294221428579	628.561859690540	1020.659731693208	1486.337892604091	455.959725566308	1099.561085832795	930.295697324028	599.202838276939	1048.656893305572	952.832797019524	329.812230260199	1098.888190878488	719.247043036800	572.953103168741	1000.417286333694	623.242255570449	641.628061764174	1056.683091724206	558.508324959581	558.290091344196	1038.416396990152	470.757648543095	565.754565917860	1124.263362684508	760.456532610437	354.540199523951	1059.107732541667	633.541058003453	288.669689544819	1164.358281279612	573.958879993007	343.997168120605	1183.380782494324	506.920010531800	343.260062649919	1165.187047745079	433.934693146508	333.150993079367	1090.462671986917	306.781900991603	288.320909828155	1174.603581743254	204.495012093204	340.846362565747	994.652057858107	388.672677657471	575.094199342497	908.057703782590	299.742177699875	640.795505023413	929.149443667292	198.372517917316	577.926305969240	774.652985442060	44.498170757267	549.908935313999	943.667591568417	95.110114067322	590.986922491693	854.709186433853	36.675477682791	627.025690260236	1063.126353875930	41.875528184288	625.299096700984	1080.085925738986	37.944514123918	384.473767304838	1150.112200364823	37.136806146565	300.846516340864	1230.319675808217	103.638014058962	322.115179362706	1358.863979617971	59.498119242080	287.868828450089	902.697280656951	1076.528119450586	213.559770544874	939.794368255935	816.441850264352	196.708129409920	1136.577845723395	1081.910126584449	741.650151958517	1317.657276625306	925.860838944079	644.174713063919	
127	23.803000000000	859.889757756887	998.656422231729	513.205940841414	1008.039447454628	1419.617248903712	298.832651593584	1138.456491568419	1354.063397229179	440.194470238988	1089.621876119269	1431.327389324994	625.485687625947	1020.341965725990	1485.910267746978	452.590211941012	1101.090763400166	929.992871774129	597.344574192897	1050.510947570581	952.306347283634	327.919368299688	1100.203403776505	718.595104462442	571.491492948234	1001.020971555572	622.763415642089	639.855825935800	1057.376341033011	557.601193248330	556.900015460244	1038.718527456887	469.211082056626	564.471997043850	1125.780483173106	759.026572570829	352.681527440248	1059.280903236431	632.633404622634	287.636026127053	1164.218455589731	572.673988502133	343.186630524775	1181.900088868086	505.120486395515	343.068275496601	1163.723213588838	432.072401503493	332.865184712324	1088.342994624560	305.367727319064	287.735420712733	1171.068971835333	202.522894541733	341.204438445486	993.503883917140	387.863007633282	573.899569897343	905.743273722828	300.255698421861	639.963143073804	925.538917516705	198.403872036751	577.477978280170	769.368219486703	45.681745905150	550.081293846469	938.772770528202	95.277908027472	591.010452296304	849.509521953707	37.155236245670	627.003421249379	1057.979305707202	41.383579240061	625.391898922198	1074.098248927479	37.855048642979	385.206050643734	1144.033221875845	36.194100103449	301.397071518889	1225.607709230294	100.995084037392	323.101127203982	1353.582684878472	54.472982190303	288.565462854029	906.084544749167	1074.577658608920	210.504388802980	946.404415584468	814.809555160454	194.462580307710	1135.408245713289	1081.391795740963	737.752071282140	1313.985347982492	922.284947773526	639.989278927595	
128	23.816357142857	861.199356431156	998.259638225386	510.745500211421	1008.422420311459	1419.006559469000	295.438212585092	1138.784019444655	1354.280533303932	437.217486228018	1089.239809436807	1431.630248694511	622.304889188666	1020.135167568280	1485.745861919132	449.137180926073	1102.474611662573	929.927468328934	595.284769486657	1052.112994580991	952.184326577254	325.797223287623	1101.641592307354	718.200949402160	569.714668576848	1002.132515056494	622.367849258748	637.888759234369	1058.688406177324	556.883103008905	555.251100825202	1039.838196095041	467.650992839914	563.138958810082	1127.326200627825	758.392450756134	350.759175661430	1060.010298747247	632.418596676808	286.266470950877	1164.451195231188	572.040983431269	342.163358446521	1180.858249058550	503.973892528782	342.626911285463	1162.683685078353	430.786695896202	332.366535120277	1086.737231795695	304.616158940939	286.537709590563	1167.746170942317	201.115530090618	341.214811624443	992.963196837701	387.136332339058	572.664835613506	903.875991172413	301.041502555801	639.064243741514	922.258259109679	198.664893721726	577.032602598959	764.171295309539	47.429106911788	550.280101416965	934.088380407862	95.556169828169	591.080842608176	844.391952497243	37.931576344860	626.987366782286	1052.888640869798	40.830775883936	625.486945258554	1068.402304760739	37.919861287801	385.388337733963	1138.351424532791	35.639486644926	301.509519151951	1220.927981728343	99.156413871966	323.680537319536	1348.509265684653	50.868381532668	289.061931689344	909.908339535927	1072.822138167508	207.220418844496	953.510946707406	813.444278093943	191.856088515006	1133.873153777553	1081.195135996215	734.072225563403	1309.785083990480	918.624482517429	636.530037630654	
129	23.829714285714	862.391132861879	998.177163437633	508.261022208141	1008.780785327308	1418.678443454450	292.036619198211	1139.136903688847	1354.685031549304	434.142377079130	1089.080624501456	1432.217623155672	619.029242987386	1020.026116451923	1485.854311484937	445.626309446545	1103.682130632295	930.125871159487	593.018293491856	1053.467351333142	952.444601059778	323.416557541105	1103.185994767589	718.101316731587	567.613744447099	1003.795328386185	622.077909213399	635.753464602248	1060.689940373199	556.393294038488	553.370280942163	1041.877609861922	466.114095579704	561.832707869861	1128.887448214601	758.497418944287	348.754001587139	1061.152758697923	632.779900142468	284.619150817761	1164.927254161194	571.920227968650	340.901694533652	1180.138393868974	503.360224551508	341.934093377283	1161.919159653618	429.981819942653	331.679174545617	1085.433439802318	304.415788285170	284.936437458649	1164.530840959760	200.199672926776	340.970348335562	993.138939841323	386.522254594761	571.449181495044	902.538256401934	302.158406965342	638.124549133545	919.387689335716	199.216011454287	576.623961898897	759.124829013228	49.876554245889	550.501916886466	929.670166993903	95.970054587825	591.214982485084	839.385698971153	39.094035894335	626.978178094491	1047.843554043416	40.234247249903	625.579501887084	1062.969224325516	38.074189973464	385.184646129650	1132.998414392168	35.389899563561	301.313840922280	1216.226590410075	98.036870299201	323.926686786336	1343.573537487892	48.584651761576	289.366631997334	914.105296984775	1071.319709204950	203.716303315555	961.107537601261	812.422600021106	188.900904106521	1131.994275836341	1081.362066682451	730.642432607237	1305.050249697089	914.923297561968	633.851236768956	
